<svg width="83" height="37" viewBox="0 0 83 37" fill="none" xmlns="http://www.w3.org/2000/svg">
<path id="404 1 (Traced)" fill-rule="evenodd" clip-rule="evenodd" d="M8.59313 0.171918C7.63665 0.488628 6.97746 1.00888 6.52648 1.80254C6.20241 2.37298 2.37096 16.3384 0.336927 24.3631C-0.173447 26.377 -0.119245 27.1467 0.604204 28.1561C1.33252 29.1723 2.10433 29.4611 4.10249 29.4655C5.01013 29.4675 5.87623 29.4213 6.02731 29.3625C6.44096 29.2021 6.75027 28.3355 6.56738 27.8495C6.30384 27.1485 5.96386 27.0198 4.36296 27.0142C2.02481 27.006 2.04591 27.5158 4.06663 19.8676C7.82262 5.6521 8.52076 3.1714 8.86333 2.82582C9.12282 2.56405 9.38863 2.49353 10.0556 2.50927C11.1372 2.53486 12.4327 3.08562 12.4327 3.5196C12.4327 3.69083 11.3738 8.02554 10.0796 13.1526C8.78544 18.2797 7.72655 22.5755 7.72655 22.699C7.72655 22.8225 7.90587 23.1046 8.12495 23.326C8.52108 23.7265 8.54055 23.7287 11.7479 23.7287C15.956 23.7287 15.6773 23.9734 15.6808 20.2739C15.6822 18.7912 15.7421 17.4845 15.814 17.3702C16.1343 16.86 17.7743 16.693 18.6857 17.0778L19.2485 17.3154V19.8416C19.2485 22.4659 19.3939 23.2922 19.904 23.5681C20.0672 23.6563 20.7785 23.7287 21.4846 23.7287C22.5722 23.7287 22.8143 23.78 23.0691 24.0646C23.4766 24.5196 23.4936 25.9552 23.0989 26.5646C22.8252 26.9873 22.7461 27.0093 21.4761 27.0142C19.3431 27.0226 19.2485 27.2 19.2485 31.1962C19.2485 33.9861 19.2404 34.0545 18.8834 34.2536C18.3167 34.5695 16.6392 34.5254 16.1181 34.1808L15.6783 33.89V30.8519C15.6783 26.7724 15.9011 27.0089 12.0562 27.0089C9.44365 27.0089 9.1986 27.0345 8.80329 27.3489C8.24439 27.7933 8.22037 28.6084 8.75119 29.1126C9.0962 29.44 9.29516 29.4691 11.1854 29.4691H13.2441L13.2467 31.9704C13.2493 34.2587 13.2805 34.527 13.6144 35.1227C14.619 36.9154 17.7197 37.564 19.9685 36.452C21.5324 35.6787 21.8427 34.8829 21.844 31.6423L21.845 29.4691H22.5834C23.456 29.4691 24.0129 29.2041 24.7073 28.458C25.4317 27.6799 25.7628 26.9317 25.8595 25.8536C26.0888 23.2967 24.6359 21.2832 22.553 21.2721L21.8818 21.2685L21.8202 18.9972C21.7613 16.8336 21.7368 16.6928 21.303 16.0304C20.1363 14.2487 16.3753 13.8216 14.4984 15.2577C13.4005 16.0978 13.2446 16.5747 13.2444 19.0953L13.2441 21.2685H11.9459C11.2318 21.2685 10.6476 21.2083 10.6476 21.1346C10.6476 21.061 11.5961 17.2415 12.7555 12.6469C14.0662 7.45231 14.8638 3.98293 14.8645 3.47302C14.8659 2.51305 14.5097 1.82862 13.6732 1.18372C12.3996 0.201933 9.96603 -0.282728 8.59313 0.171918ZM65.716 0.171918C64.7605 0.4883 64.101 1.00822 63.6473 1.80254C63.4172 2.20568 62.5506 5.12857 61.5475 8.88546C60.6082 12.4035 59.2371 17.5331 58.5007 20.2844C56.9319 26.1451 57.6301 28.0199 57.6301 28.0199C57.6301 28.0199 58.4189 28.8844 58.841 29.1001C59.5466 29.4608 59.685 29.4691 64.965 29.4691H70.367V31.9359C70.367 35.126 70.5802 35.6298 72.3144 36.538C73.3346 37.0722 75.769 37.0997 76.86 36.5893C78.6021 35.7743 78.9679 34.8931 78.9679 31.5113V29.4691H79.7089C80.5888 29.4691 80.9549 29.2992 81.7682 28.5134C83.2701 27.0624 83.4223 24.2214 82.0939 22.4397C81.5892 21.7626 80.5754 21.2768 79.6576 21.2721L78.9679 21.2685L78.9669 19.4233C78.9656 16.5262 78.5809 15.6172 77.0578 14.9126C75.3334 14.1147 72.9143 14.2684 71.6213 15.2577C70.5234 16.0978 70.3675 16.5747 70.3673 19.0953L70.367 21.2685H69.0688C68.3547 21.2685 67.7705 21.203 67.7705 21.123C67.7705 21.043 68.7199 17.2164 69.8802 12.6196C71.1786 7.47576 71.9897 3.95243 71.9892 3.45727C71.9885 2.51419 71.626 1.82353 70.7961 1.18372C69.5225 0.201933 67.0889 -0.282728 65.716 0.171918ZM68.8659 2.90323C69.3123 3.10087 69.5553 3.31294 69.5546 3.50484C69.554 3.6677 68.4951 8.00044 67.2016 13.1331C65.9078 18.2656 64.8494 22.5681 64.8494 22.6942C64.8494 22.8204 65.0288 23.1046 65.2478 23.326C65.6441 23.7267 65.6625 23.7287 68.8873 23.7287H72.1286L72.4648 23.2965C72.7733 22.9002 72.8014 22.6447 72.8037 20.2212C72.8051 18.7676 72.865 17.4845 72.9369 17.3702C73.2572 16.86 74.8972 16.693 75.8086 17.0778L76.3714 17.3154V19.8416C76.3714 22.4659 76.5168 23.2922 77.0269 23.5681C77.1901 23.6563 77.9014 23.7287 78.6075 23.7287C79.6988 23.7287 79.9367 23.7795 80.1946 24.0675C80.598 24.5179 80.6103 25.9658 80.216 26.574C79.9494 26.9853 79.8617 27.0093 78.599 27.0142C76.466 27.0226 76.3714 27.2 76.3714 31.1962C76.3714 33.9861 76.3633 34.0545 76.0063 34.2536C75.4396 34.5695 73.7621 34.5254 73.241 34.1808L72.8012 33.89V30.8519C72.8012 27.8453 72.7972 27.81 72.4028 27.4116L72.0046 27.0089H66.0044C60.766 27.0089 59.9718 26.9761 59.7491 26.7513C59.6089 26.6094 59.4942 26.4415 59.4942 26.3778C59.4942 26.253 62.87 13.4731 64.5825 7.11477C65.1605 4.96816 65.7285 3.09628 65.8444 2.95506C66.3494 2.34017 67.5472 2.31967 68.8659 2.90323ZM39.8906 4.39083C34.912 4.86385 30.1848 8.1966 27.9326 12.8213C26.8598 15.0243 26.5333 16.3674 26.4337 18.987C26.3038 22.4036 28.624 27.6583 28.624 27.6583C30.5749 30.8354 33.6457 33.1791 37.3759 34.3381C38.682 34.7438 39.0312 34.7815 41.481 34.7815C43.9308 34.7815 44.28 34.7438 45.5861 34.3381C49.3162 33.1791 52.3871 30.8354 54.338 27.6583C56.0227 24.9145 56.6569 22.4069 56.5311 18.987C56.435 16.3756 55.9972 14.6287 54.9096 12.5157C53.7343 10.2328 52.7616 9.51445 51.8525 10.2584C51.3003 10.7103 51.3561 11.5049 52.0069 12.461C53.3134 14.3802 53.9695 16.4319 54.094 18.9879C54.3932 25.1344 50.7576 30.1539 44.6455 32.033C43.909 32.2593 43.1379 32.3323 41.481 32.3323C39.8241 32.3323 39.0529 32.2593 38.3165 32.033C34.2121 30.7711 31.237 28.1528 29.771 24.5118C27.1113 17.9065 30.2539 10.3739 36.7805 7.70948C40.5409 6.17432 45.2432 6.67472 48.5292 8.95976C49.5778 9.68896 50.1228 9.76113 50.6392 9.23924C51.5831 8.28517 50.9368 7.32668 48.479 6.03704C45.8454 4.6549 42.9506 4.10004 39.8906 4.39083ZM35.1892 12.6855C34.851 12.8231 34.4771 13.7089 34.5917 14.1011C34.6498 14.2995 35.8383 15.6233 37.233 17.0428L39.7688 19.6237L37.1358 22.3026C35.3904 24.0784 34.5029 25.0988 34.5029 25.3299C34.5029 25.9084 35.1887 26.5715 35.787 26.5715C36.2474 26.5715 36.6259 26.2542 38.8962 23.9629L41.481 21.3543L44.0658 23.9629C46.3361 26.2542 46.7146 26.5715 47.1749 26.5715C47.7733 26.5715 48.4591 25.9084 48.4591 25.3299C48.4591 25.0988 47.5716 24.0784 45.8262 22.3026L43.1932 19.6237L45.729 17.0428C47.1237 15.6233 48.3125 14.2986 48.371 14.0991C48.4858 13.7063 48.2355 13.1054 47.8241 12.786C47.1797 12.286 46.8454 12.5075 44.1293 15.2344L41.481 17.8932L38.8327 15.2344C36.1908 12.582 35.9162 12.3899 35.1892 12.6855Z" fill="#FE2156"/>
</svg>
