<svg width="80" height="80" viewBox="0 0 80 80" fill="none" xmlns="http://www.w3.org/2000/svg">
<g clip-path="url(#clip0_103_557)">
<path d="M72.5697 0H7.42742C5.86702 0 4.69633 1.32042 4.834 2.88065L10.784 69.5569C10.9218 71.1159 12.2703 72.7477 13.7827 73.169L37.2382 79.6844C38.7487 80.1031 41.2175 80.1058 42.7301 79.6899L66.2147 73.1836C67.7275 72.7635 69.076 71.1465 69.2136 69.5847L75.1661 2.88065C75.3038 1.32042 74.1381 0 72.5697 0ZM61.2723 24.0682C61.2712 24.0784 61.2633 24.0864 61.2532 24.0881C61.243 24.0898 61.2332 24.0845 61.2287 24.075L42.852 31.6058C42.5903 31.713 42.441 31.9906 42.4954 32.2681C42.5501 32.5457 42.7935 32.7459 43.0765 32.7459H57.3707C58.1311 32.7459 58.8554 33.0688 59.3639 33.6343C59.8723 34.1997 60.1167 34.9545 60.036 35.7105L57.8025 56.662C57.6929 57.6899 57.0022 58.5632 56.027 58.9063L40.8548 64.2448C40.2834 64.446 39.6605 64.4475 39.0877 64.249L23.9864 59.018C23.0053 58.678 22.3088 57.8022 22.1985 56.7697L21.186 47.2812C21.1328 46.7831 21.2938 46.2857 21.6286 45.9134C21.9636 45.5408 22.4408 45.328 22.9419 45.328H27.1441C28.0471 45.328 28.8045 46.0091 28.9 46.9068L29.5212 52.7391L39.9773 56.3737L50.4813 52.706L51.7661 40.6099H22.0667C21.1665 40.6099 20.4103 39.9326 20.3116 39.0378L19.7461 33.9111C19.6598 33.1291 20.101 32.3845 20.8281 32.0849L39.8359 24.2482C40.0516 24.1593 40.1741 23.9307 40.1289 23.702C40.0835 23.4734 39.8831 23.3087 39.6501 23.3087H19.6375C19.035 23.3087 18.5297 22.8537 18.4668 22.2547L17.8879 16.7445C17.8531 16.4129 17.9607 16.082 18.1838 15.834C18.407 15.5862 18.725 15.4446 19.0585 15.4446H60.933C61.2683 15.4446 61.5877 15.5877 61.811 15.8377C62.0344 16.0879 62.1404 16.4214 62.1025 16.7545L61.2723 24.0682Z" fill="#969293"/>
</g>
<defs>
<clipPath id="clip0_103_557">
<rect width="80" height="80" fill="white"/>
</clipPath>
</defs>
</svg>
