<svg version="1.1" id="fan" xmlns="http://www.w3.org/2000/svg" xmlns:xlink="http://www.w3.org/1999/xlink" x="0px" y="0px"
   viewBox="0 0 161.957 168.478" enable-background="new 0 0 161.957 168.478" xml:space="preserve">
  <g>
<path fill="none" stroke="#000000" stroke-miterlimit="10" d="M77.772,91.373c-0.563,0.563,0.906,13.806-1.344,13.993l-4.081,0.804
  c-4.125,1.875-5.75,42.559-4.25,48.935c0.563,2.063,2.648,6.599,12.18,6.599c10.266,0,13.699-4.432,14.388-6.599
  c2.117-15.584-2.889-46.288-5.139-48.351c-0.938-0.75-4.217-1.079-5.154-1.267c-1.125-0.188-0.382-13.309-0.944-14.059"/>
<path fill="none" stroke="#000000" stroke-miterlimit="10" d="M83.584,73.354c0.563-0.563-0.906-13.806,1.344-13.993l4.081-0.804
  c4.125-1.875,5.75-42.559,4.25-48.935c-0.563-2.063-2.648-6.599-12.18-6.599c-10.266,0-13.699,4.432-14.388,6.599
  C64.574,25.205,69.58,55.91,71.83,57.972c0.938,0.75,4.217,1.079,5.154,1.267c1.125,0.188,0.382,13.309,0.944,14.059"/>
<path fill="none" stroke="#000000" stroke-miterlimit="10" d="M74.248,75.3c-0.251-0.755-12.749-5.373-11.909-7.469l1.109-4.009
  c0.171-4.528-35.477-24.202-41.849-25.716c-2.096-0.421-7.086-0.588-11.356,7.935C5.645,55.218,8.07,60.273,9.698,61.859
  c12.985,8.872,42.68,18.148,45.532,17.06c1.091-0.502,2.853-3.287,3.441-4.041c0.672-0.922,12.071,5.62,12.993,5.453"/>
<path fill="none" stroke="#000000" stroke-miterlimit="10" d="M71.171,84.194c-0.781-0.15-10.917,8.499-12.335,6.742L55.88,88.01
  c-3.867-2.361-38.449,19.131-42.883,23.952c-1.391,1.623-3.975,5.896,1.376,13.785c5.762,8.496,11.358,8.849,13.537,8.203
  c14.085-6.996,36.686-28.374,37.13-31.394c0.094-1.197-1.474-4.096-1.845-4.977c-0.476-1.036,10.8-7.787,11.105-8.673"/>
<path fill="none" stroke="#000000" stroke-miterlimit="10" d="M90.292,80.563c0.923,0.167,12.322-6.375,12.993-5.453
  c0.588,0.754,2.351,3.539,3.441,4.041c2.852,1.088,32.547-8.188,45.532-17.06c1.628-1.586,4.054-6.641-0.544-15.819
  c-4.269-8.523-9.26-8.356-11.356-7.935c-6.372,1.514-42.02,21.188-41.849,25.716l1.109,4.009c0.84,2.096-11.658,6.714-11.909,7.469"
  />
<path fill="none" stroke="#000000" stroke-miterlimit="10" d="M87.45,90.018c0.305,0.887,11.582,7.637,11.105,8.673
  c-0.371,0.881-1.939,3.78-1.845,4.977c0.444,3.02,23.045,24.399,37.13,31.394c2.18,0.646,7.775,0.293,13.537-8.203
  c5.351-7.889,2.767-12.161,1.376-13.785c-4.434-4.82-39.016-26.313-42.883-23.952l-2.956,2.926
  c-1.418,1.757-11.554-6.892-12.335-6.742"/>
    </g>
</svg>