<svg width="80" height="80" viewBox="0 0 80 80" fill="none" xmlns="http://www.w3.org/2000/svg">
<path d="M26.6667 80C34.0267 80 40 74.0267 40 66.6667V53.3333H26.6667C19.3067 53.3333 13.3334 59.3067 13.3334 66.6667C13.3334 74.0267 19.3067 80 26.6667 80Z" fill="#0ACF83"/>
<path d="M13.3334 40C13.3334 32.64 19.3067 26.6667 26.6667 26.6667H40V53.3333H26.6667C19.3067 53.3333 13.3334 47.36 13.3334 40Z" fill="#A259FF"/>
<path d="M13.3334 13.3333C13.3334 5.97333 19.3067 0 26.6667 0H40V26.6667H26.6667C19.3067 26.6667 13.3334 20.6933 13.3334 13.3333Z" fill="#F24E1E"/>
<path d="M40 0H53.3333C60.6933 0 66.6667 5.97333 66.6667 13.3333C66.6667 20.6933 60.6933 26.6667 53.3333 26.6667H40V0Z" fill="#FF7262"/>
<path d="M66.6667 40C66.6667 47.36 60.6933 53.3333 53.3333 53.3333C45.9733 53.3333 40 47.36 40 40C40 32.64 45.9733 26.6667 53.3333 26.6667C60.6933 26.6667 66.6667 32.64 66.6667 40Z" fill="#1ABCFE"/>
</svg>
