<svg width="80" height="80" viewBox="0 0 80 80" fill="none" xmlns="http://www.w3.org/2000/svg">
<g clip-path="url(#clip0_103_500)">
<path d="M47.4279 50.4443L43.5163 49.5775C43.4769 46.9447 42.9131 44.4024 41.8416 42.0204L44.8672 39.5704C45.5871 38.9873 45.6978 37.9309 45.1155 37.2102L41.3223 32.5251C41.042 32.1785 40.6359 31.9587 40.1929 31.9117C39.7524 31.8639 39.3069 31.9973 38.9612 32.2767L36.0154 34.6646C33.9296 33.0646 31.5878 31.9302 29.054 31.2925V27.5521C29.054 26.6258 28.3022 25.8741 27.3759 25.8741H21.3491C20.4228 25.8741 19.6711 26.6258 19.6711 27.5521V31.295C17.0868 31.947 14.7023 33.1166 12.5838 34.772L9.60939 32.4059C9.26119 32.129 8.8207 32.004 8.37434 32.0518C7.93217 32.1022 7.52775 32.3262 7.25087 32.6752L3.49872 37.3931C2.92147 38.118 3.04229 39.1744 3.76721 39.7508L6.82297 42.1806C5.77418 44.5702 5.233 47.1133 5.21538 49.7403L1.30046 50.6448C0.397661 50.8546 -0.16533 51.754 0.0427501 52.6568L1.39863 58.5309C1.60754 59.4345 2.51034 59.9966 3.41146 59.7886L7.44972 58.8564C8.6487 61.1067 10.2554 63.0667 12.2247 64.6818L10.404 68.4994C10.0046 69.3359 10.3586 70.3369 11.1952 70.7363L16.6354 73.3331C16.8628 73.4413 17.1103 73.4958 17.3578 73.4958C17.5475 73.4958 17.7363 73.4639 17.9183 73.4002C18.3378 73.2508 18.681 72.9429 18.8731 72.541L20.7173 68.6722C23.1698 69.1446 25.723 69.1371 28.1671 68.6454L30.0432 72.4915C30.4493 73.3255 31.4569 73.6687 32.2876 73.2651L37.7044 70.6238C38.5367 70.2177 38.8832 69.2126 38.4771 68.3803L36.6262 64.5845C38.5854 62.9517 40.1762 60.9758 41.3575 58.7121L45.3949 59.6073C46.2977 59.8062 47.1955 59.2373 47.396 58.3312L48.7024 52.4462C48.798 52.0116 48.7192 51.556 48.4784 51.1809C48.2401 50.805 47.8625 50.5399 47.4279 50.4443ZM31.7623 49.8679C31.7623 53.9447 28.4457 57.2614 24.368 57.2614C20.2919 57.2614 16.9753 53.9447 16.9753 49.8679C16.9753 45.791 20.2911 42.4743 24.368 42.4743C28.4457 42.4751 31.7623 45.791 31.7623 49.8679Z" fill="#969293"/>
<path d="M51.9721 36.0775C52.598 36.0775 53.1996 35.7251 53.4882 35.1219L54.3726 33.2693C55.9046 33.5655 57.5064 33.5587 59.03 33.2517L59.9278 35.0933C60.3331 35.9257 61.3391 36.2722 62.1722 35.8661L64.4301 34.7644C64.8303 34.5689 65.1365 34.2224 65.2817 33.8021C65.426 33.3817 65.3983 32.9202 65.202 32.52L64.3185 30.7119C65.5418 29.6933 66.5385 28.4583 67.2777 27.0395L69.189 27.4623C70.0902 27.662 70.9896 27.0915 71.191 26.187L71.733 23.7345C71.9327 22.83 71.363 21.934 70.4568 21.7334L68.6244 21.3273C68.6009 19.6812 68.2476 18.0912 67.5773 16.6019L68.981 15.465C69.3266 15.1848 69.5473 14.7787 69.5926 14.3365C69.6396 13.8944 69.507 13.4505 69.2268 13.1048L67.6461 11.1524C67.0613 10.4317 66.0041 10.3218 65.2859 10.9049L63.9317 12.0015C62.6278 11.0005 61.1637 10.2916 59.5788 9.89302V8.18139C59.5788 7.2551 58.827 6.50333 57.9007 6.50333H55.3886C54.4624 6.50333 53.7106 7.2551 53.7106 8.18139V9.89302C52.0938 10.3008 50.6036 11.0324 49.2805 12.0678L47.9095 10.9787C47.1863 10.4023 46.1308 10.5231 45.5518 11.2472L43.9904 13.2147C43.7135 13.5638 43.5868 14.0076 43.6363 14.4498C43.6875 14.892 43.9107 15.2964 44.2597 15.5733L45.6769 16.7018C45.0224 18.1944 44.6834 19.786 44.6725 21.4305L42.8367 21.8543C42.4021 21.9541 42.0271 22.2226 41.7913 22.6002C41.5555 22.9777 41.4792 23.4333 41.5799 23.8671L42.1462 26.3154C42.3551 27.2182 43.2562 27.7812 44.1582 27.5723L46.0704 27.1301C46.8196 28.5363 47.8239 29.7621 49.0573 30.774L48.1889 32.5947C47.9968 32.9966 47.9733 33.4572 48.1218 33.8767C48.2711 34.2963 48.5799 34.6403 48.981 34.8316L51.248 35.9131C51.4838 36.0238 51.7296 36.0775 51.9721 36.0775ZM52.0283 21.5086C52.0283 18.9588 54.1032 16.8855 56.6531 16.8855C59.202 16.8855 61.2761 18.9596 61.2761 21.5086C61.2761 24.0584 59.202 26.1325 56.6531 26.1325C54.1024 26.1325 52.0283 24.0584 52.0283 21.5086Z" fill="#969293"/>
<path d="M78.686 53.7945L76.8552 53.3893C76.8317 51.7439 76.4785 50.154 75.8064 48.6638L77.2118 47.5269C77.5575 47.2467 77.7782 46.8406 77.8243 46.3976C77.8705 45.9546 77.7379 45.5108 77.4577 45.1659L75.8761 43.2135C75.293 42.4928 74.2349 42.3828 73.5159 42.966L72.1625 44.0626C70.857 43.0616 69.3937 42.3526 67.8096 41.9541V40.2433C67.8096 39.317 67.0579 38.5652 66.1316 38.5652H63.6195C62.6932 38.5652 61.9414 39.317 61.9414 40.2433V41.9558C60.323 42.3627 58.832 43.0952 57.5105 44.1305H57.5097L56.1404 43.0415C55.7922 42.7638 55.3534 42.6371 54.9053 42.6874C54.4632 42.7386 54.0587 42.9609 53.7819 43.31L52.2187 45.2758C51.6415 46.0007 51.7623 47.0571 52.4872 47.6352L53.906 48.7628C53.2499 50.2605 52.9101 51.8513 52.9 53.4925L51.0642 53.9162C50.6305 54.0169 50.2546 54.2837 50.0188 54.6629C49.7839 55.0396 49.7067 55.4952 49.8074 55.9298L50.3737 58.3781C50.5826 59.2809 51.4871 59.8414 52.3849 59.635L54.2987 59.1937C55.048 60.6007 56.0523 61.8266 57.284 62.8376H57.2848L56.4164 64.6566C56.2243 65.0585 56.2 65.52 56.3485 65.9395C56.4986 66.359 56.8066 66.7022 57.2076 66.8943L59.4747 67.9758C59.7071 68.0866 59.9538 68.1394 60.1954 68.1394C60.8213 68.1394 61.4238 67.787 61.7116 67.1829L62.5959 65.3312C64.1296 65.6274 65.733 65.6223 67.2542 65.3136L68.1528 67.1536C68.5589 67.9859 69.5641 68.3332 70.3972 67.9272L72.6542 66.8264C73.0544 66.6317 73.3607 66.2852 73.505 65.8648C73.6501 65.4445 73.6233 64.983 73.427 64.5828L72.5443 62.7747C73.7684 61.7552 74.7635 60.5193 75.501 59.1022L77.4124 59.5268C77.8487 59.6233 78.3026 59.5436 78.6776 59.3028C79.0527 59.0636 79.3178 58.6861 79.4143 58.2506L79.9571 55.7981C80.1627 54.8911 79.5913 53.9959 78.686 53.7945ZM69.5036 53.5705C69.5036 56.1203 67.4296 58.1944 64.8814 58.1944C62.3324 58.1944 60.2567 56.1203 60.2567 53.5705C60.2567 51.0207 62.3324 48.9466 64.8814 48.9466C67.4296 48.9474 69.5036 51.0215 69.5036 53.5705Z" fill="#969293"/>
</g>
<defs>
<clipPath id="clip0_103_500">
<rect width="80" height="79.9992" fill="white"/>
</clipPath>
</defs>
</svg>
