<svg width="80" height="80" viewBox="0 0 80 80" fill="none" xmlns="http://www.w3.org/2000/svg">
<path d="M34.3436 4.55213C37.4679 1.42794 42.5332 1.42793 45.6574 4.55213L75.448 34.343C78.5723 37.4672 78.5723 42.5325 75.448 45.6567L45.6574 75.4475C42.5332 78.5717 37.4679 78.5717 34.3436 75.4475L4.5528 45.6567C1.42861 42.5325 1.4286 37.4672 4.5528 34.343L25.5623 13.3335L32.7797 20.5509C32.2799 21.5953 32 22.765 32 24C32 27.4833 34.2262 30.4466 37.3334 31.5448V48.4552C34.2262 49.5534 32 52.5167 32 56C32 60.4181 35.5817 64 40 64C44.4183 64 48 60.4181 48 56C48 52.5167 45.7739 49.5534 42.6667 48.4552V31.5448C42.9343 31.4502 43.1954 31.3418 43.4491 31.2203L48.7796 36.5509C48.2799 37.5953 48 38.765 48 40C48 44.4183 51.5817 48 56 48C60.4182 48 64 44.4183 64 40C64 35.5817 60.4182 32 56 32C54.7648 32 53.5952 32.2799 52.5509 32.7797L47.2204 27.4491C47.7201 26.4047 48 25.235 48 24C48 19.5817 44.4183 16 40 16C38.765 16 37.5953 16.2799 36.5509 16.7797L29.3335 9.56229L34.3436 4.55213Z" fill="#969293"/>
</svg>
