<svg width="80" height="93" viewBox="0 0 80 93" fill="none" xmlns="http://www.w3.org/2000/svg">
<path d="M12.7814 40.8239C10.1421 42.0654 3.15653 47.6543 1.81109 49.3101C0.413821 50.966 -2.40754e-05 48.3788 1.44882 44.0839C2.58695 40.6169 5.48514 35.9078 10.3492 31.8717C13.195 29.5431 19.4566 26.1798 23.2856 24.2132C24.062 23.7991 34.1007 19.556 43.0529 17.4344C43.8292 17.2274 42.1215 18.728 41.8626 19.556C40.5172 23.4886 13.6607 40.358 13.6607 40.358L12.7814 40.8239ZM50.6078 88.2751C51.0734 91.0694 50.6596 91.2765 47.7619 91.6387C44.864 92.001 42.7424 90.9142 41.9663 90.1899C41.1899 89.4651 41.035 87.8613 41.8111 86.4124C42.277 85.4808 42.7427 85.1704 43.0015 84.032C43.2602 82.9454 43.4672 82.6866 43.674 82.2727C43.8808 81.9102 43.9329 81.5479 43.9845 79.0125C44.0363 76.4771 43.9845 71.7162 44.2433 69.6983C44.5022 67.6286 53.4544 70.6297 53.4544 70.6297C53.4544 70.6297 51.3326 75.9078 50.7635 77.2014C50.1942 78.4953 50.246 80.9788 50.246 81.4963C50.246 82.0138 50.0392 83.0486 49.8837 83.1004C49.7285 83.152 50.4012 84.4974 50.0905 85.2738C49.8835 85.9983 50.5562 87.8613 50.6078 88.2751V88.2751ZM54.0232 9.15496C53.7125 7.18862 54.0232 3.30727 54.437 2.68663C55.7309 0.927086 62.5613 0.72029 64.0104 2.79002C64.6313 3.72137 64.5794 5.89475 64.476 7.29202C64.3726 8.68903 64.0104 11.6904 63.9585 12.6738C63.907 13.3983 56.4036 14.5365 54.7477 12.5701C54.2818 12.0529 54.0232 9.15496 54.0232 9.15496V9.15496ZM69.2367 83.2556C72.3932 85.5327 74.8252 85.9465 76.4293 86.7745C78.0333 87.6027 77.6195 89.2067 74.9286 89.6724C72.7552 90.0862 69.3401 89.2583 67.0633 89.2583C64.7865 89.2583 59.7152 89.5172 58.3697 88.5858C56.8175 87.4993 57.4899 85.4808 57.4899 85.4808C57.904 84.3427 58.9388 81.8068 58.6283 79.737C58.3179 77.6673 57.9038 76.5289 57.1277 74.6142C56.3516 72.6997 55.7825 67.9909 56.507 67.732C57.2316 67.4731 57.0243 67.732 57.9559 67.9388C58.8872 68.1456 59.9222 68.4563 61.9404 68.4563C63.9585 68.4563 66.1835 68.1456 66.9599 67.9906C67.736 67.8354 68.3569 67.6799 68.098 69.2842C67.8394 70.8883 67.0633 73.8896 67.0114 76.2182C66.9599 78.5468 66.9599 81.2377 67.1151 81.7034C67.2701 82.1691 68.4087 82.6866 69.2367 83.2556V83.2556Z" fill="#010101"/>
<path d="M58.163 14.3297C52.471 19.2458 41.4489 20.591 25.0973 26.9041C20.9057 28.5081 9.7286 33.3206 7.03772 38.3401C16.0933 33.1138 19.4569 40.3064 20.1812 47.7061C20.8536 54.6401 24.3209 58.2626 33.2212 58.0553C42.3805 57.8485 45.1747 63.1782 47.7102 69.4397C52.626 45.4809 60.4916 40.8239 65.5624 36.736C76.3259 27.9906 63.0788 12.5701 58.163 14.3297Z" fill="#8AC640"/>
<path d="M58.1631 14.3297C44.5021 19.0903 30.9961 20.2805 15.1101 30.0607C11.3327 32.3893 3.36365 37.6672 1.81116 47.758C7.60653 41.3412 21.0089 33.2691 37.4126 28.1462C45.692 25.5587 51.7465 23.8512 59.0944 21.0051C58.5772 17.6931 58.5772 16.3994 58.1631 14.3297V14.3297Z" fill="#8AC640"/>
<path d="M75.6014 42.6866C75.6014 42.6866 74.6182 46.0502 72.6519 47.137C72.6519 47.137 71.203 47.6545 68.3054 46.0504C67.4774 45.5848 66.8565 43.9807 66.9081 43.4629C66.9599 42.2209 67.736 41.6518 67.736 41.6518C67.736 41.6518 68.5642 40.2546 69.5471 40.3064C70.5306 40.358 72.1865 40.5132 72.704 40.0475C73.1694 39.53 75.705 40.9789 75.6014 42.6866V42.6866ZM54.4889 10.1381C54.4889 10.1381 54.2821 12.7774 53.9198 14.4331C53.868 14.7438 52.3158 14.8988 51.1771 15.3647C53.3505 21.5741 66.4424 21.5223 68.1501 18.4694C67.3222 17.9003 65.6663 17.0206 64.8902 16.7101C64.1138 16.3994 64.1656 16.4512 64.1138 15.0024C64.0622 13.5533 63.9586 10.8627 63.8549 10.1381C63.7515 9.41359 55.7307 9.41359 54.4889 10.1381Z" fill="#010101"/>
<path d="M55.0064 10.1381C55.0064 10.1381 55.0064 11.6388 54.8512 13.0877C54.7996 13.7604 54.7478 14.1742 54.6444 14.6917C54.5926 15.0024 56.4037 16.244 56.9212 18.9867C59.4051 24.5234 65.1491 21.781 67.5294 19.1419C66.7014 18.5726 65.3559 17.7965 63.8037 17.1756C63.0273 16.8649 63.3896 16.1924 63.338 14.7435C63.2862 13.2947 63.0791 11.1729 62.9757 10.3968C62.8718 9.62064 56.2485 9.41359 55.0064 10.1381V10.1381Z" fill="#F0EFEF"/>
<path d="M54.489 10.1381C54.489 10.1381 54.4372 11.0697 54.2822 12.1563C54.9547 12.8288 55.8345 13.7604 56.5074 14.3297C56.9731 14.7438 58.1113 14.692 59.1465 14.692C60.0779 14.692 60.9058 14.7954 61.2681 14.5886C62.0963 14.1745 63.2863 13.1397 63.959 12.3634C63.9074 11.432 63.8556 10.5522 63.804 10.1381C63.7517 9.4136 55.7308 9.4136 54.489 10.1381V10.1381Z" fill="#010101"/>
<path d="M59.198 14.0708C58.5769 14.0708 57.8523 14.0192 57.2833 13.9156C57.0244 13.864 56.7658 13.7088 56.5587 13.6051C56.1964 13.3463 55.8342 13.0361 55.4206 12.7254C54.5924 12.1045 54.5408 11.7422 54.5408 11.5872C54.9031 8.32702 54.4372 5.58456 54.4372 5.58456C54.4372 5.58456 54.0749 4.1873 56.0412 3.82502C58.0075 3.46275 59.1978 3.41118 59.1978 3.41118C59.1978 3.41118 60.4398 3.41118 62.3543 3.82502C64.3206 4.1873 63.9584 5.58456 63.9584 5.58456C63.9584 5.58456 63.4927 8.32702 63.855 11.5872C63.855 11.7422 63.8034 12.1045 62.9752 12.7254C62.2507 13.2429 61.6816 13.8119 61.1125 13.9156C60.5432 14.0192 59.8187 14.0708 59.198 14.0708V14.0708Z" fill="#010101"/>
<path d="M59.198 2.06574C55.7828 2.06574 55.1099 2.99709 54.1267 4.03208C53.9199 4.2907 54.0749 5.8432 54.4374 9.15498H54.9031C54.9031 9.15498 54.5924 8.22338 54.6442 7.13682C54.696 6.05025 54.9031 6.10207 54.7476 5.8432C54.5408 5.5325 54.1267 5.015 55.0583 4.49775C55.9896 3.98026 57.4385 4.9116 59.198 4.96343C60.9573 4.9116 62.458 3.98026 63.3893 4.49775C64.3207 5.015 63.9068 5.5325 63.7 5.8432C63.493 6.15365 63.7516 6.04999 63.8034 7.13682C63.855 8.22338 63.5445 9.15498 63.5445 9.15498H64.0102C64.3207 5.8432 64.5277 4.39436 64.3725 4.13548C63.4927 2.99709 62.6132 2.11731 59.198 2.06574V2.06574ZM75.6014 42.8419C75.6014 42.8419 74.6183 45.9984 72.7038 47.085C72.2897 46.8782 72.3415 46.5678 71.9792 46.1018C71.8756 45.9469 71.5133 45.843 71.3583 45.688C71.2031 45.5328 71.2549 45.2739 70.996 45.0671C70.789 44.8601 70.6338 45.0153 70.4267 44.8601C70.2199 44.6533 70.1678 44.3944 70.0129 44.2394C69.9092 44.1358 69.4954 44.0842 69.392 43.9805C69.1331 43.7217 66.8566 43.256 66.96 42.7385C67.1668 41.9621 67.5809 41.393 67.5809 41.393C67.5809 41.393 68.564 39.9442 69.5469 39.9958C70.5301 40.0476 71.4617 40.2547 71.9792 39.789C72.5485 39.2712 75.7569 41.186 75.6014 42.8419Z" fill="#010101"/>
<path d="M68.8745 19.9701C68.8745 19.9701 72.1345 19.1937 74.3598 21.3155C76.585 23.4889 76.4295 26.1795 75.7571 27.8354C76.3261 28.5081 77.3612 30.3708 76.585 32.596C80.0002 35.4937 78.4996 39.9441 75.4466 42.8936C75.4466 42.8936 74.7221 40.2027 71.8243 40.0475C71.9277 39.0128 69.1334 38.1846 70.4271 35.4937C68.4607 35.028 68.5125 33.6826 68.2021 32.027C67.9432 30.3708 68.8745 19.9701 68.8745 19.9701V19.9701Z" fill="#010101"/>
<path d="M67.6842 21.4189C67.6842 21.4189 71.4617 19.5044 73.687 21.6778C75.912 23.8512 75.2908 26.2314 74.6183 27.8873C75.1874 28.5597 76.5329 30.4747 75.7049 32.7513C75.5497 33.2688 74.4113 33.2688 73.5831 34.6142C75.6528 33.4237 76.9467 33.7344 77.4124 35.2348C78.1369 37.5634 76.5326 40.3577 75.1356 41.9102C75.1356 41.8584 75.0837 41.8066 75.0837 41.755C74.877 42.5314 74.6181 44.0318 73.0658 45.6877C72.2894 46.5156 71.6685 46.4122 70.7887 46.2052C69.754 45.9463 69.3917 45.4804 67.9429 44.7045C67.1149 44.2388 67.5806 43.6695 67.5806 43.2038C67.5806 43.1004 67.684 42.945 67.8395 42.7382C67.9429 42.4793 68.2533 42.0657 68.719 41.5998C68.719 41.5998 69.3917 40.6684 70.3752 40.72C71.3583 40.7718 72.3931 40.565 72.652 40.3062C72.652 38.495 70.5822 38.4432 71.3065 35.3385C71.3583 35.1833 71.6172 34.9244 72.4449 34.821C71.2029 34.5621 70.6338 34.5103 69.754 33.6826C69.1331 33.1135 68.6674 32.389 68.5119 31.4576C68.2017 29.8536 67.6842 21.4189 67.6842 21.4189V21.4189Z" fill="#F0EFEF"/>
<path d="M56.7657 18.159C56.4552 17.7449 54.8512 15.6751 51.798 14.8472C50.9182 14.5883 50.3492 15.3129 49.4697 15.8304C49.2108 15.6751 48.0724 15.1576 47.4515 15.5197C46.8306 15.8817 46.4168 16.2442 45.7956 16.5028C45.4849 16.3476 44.6572 16.3476 43.9845 16.6062C43.3118 16.8133 42.2768 17.2789 41.2936 18.6244C40.6727 20.8496 52.2637 19.1934 52.2637 19.1934L56.7657 18.159Z" fill="#010101"/>
<path d="M56.8693 18.159C55.2132 17.5896 55.4721 15.6751 51.798 15.3647C51.0735 15.3129 50.6078 15.8819 50.0903 16.2442C50.3492 16.5031 50.6078 16.9169 50.763 17.3308C50.2974 16.8135 49.4694 16.1405 48.6412 15.9853C47.8651 15.8304 47.3476 16.3994 46.5197 16.8135C46.6746 16.9685 46.8301 17.2274 47.0369 17.5381C46.3124 17.0724 45.7951 16.9172 44.8119 17.2792C44.1392 17.486 42.8456 18.0553 41.8624 19.4526C41.2416 21.6778 52.3153 19.1937 52.3153 19.1937L56.8693 18.159Z" fill="#8AC640"/>
<path d="M66.5976 18.9869C66.5976 18.9869 66.5976 18.4176 66.5458 17.9004C66.5458 17.797 66.132 17.5381 66.132 17.4347L66.0286 17.331C66.0286 17.331 66.8565 16.8654 67.4774 17.1242C68.1499 17.331 68.5122 18.2108 68.5122 18.2108C69.7024 17.797 69.8058 18.2626 70.3751 18.8835C71.6171 18.6247 71.7721 19.0903 72.5485 20.229C72.5485 20.229 71.6171 20.0738 69.806 20.3839C68.0465 20.6426 66.5976 18.9351 66.5976 18.9869V18.9869Z" fill="#010101"/>
<path d="M66.3906 18.728C66.3906 18.728 66.701 18.4692 66.5974 18.4173C67.1664 18.1069 67.9428 17.7449 68.3051 18.728C69.4953 18.3139 69.6505 18.8833 70.2196 19.5044C71.6685 18.8317 71.7719 19.6594 71.8755 20.0217C71.4098 20.0217 70.7374 20.0735 69.8058 20.1769C68.0465 20.4358 66.3387 18.6762 66.3906 18.728Z" fill="#8AC640"/>
<path d="M48.797 17.4344C48.797 17.4344 51.7465 18.4692 54.2304 18.3139C56.7142 18.1071 60.9574 17.9001 63.2342 19.2455C63.2342 19.2455 65.5628 18.4173 67.7362 18.9867C69.9098 19.5557 73.8941 23.2816 72.7041 27.2143C72.6005 27.4732 71.9278 27.887 71.1516 28.1459C71.1516 28.1459 71.5657 29.9052 70.8412 31.354C70.1166 32.7513 68.5126 35.4422 68.4607 39.1678C68.4092 39.7887 68.3058 41.0823 68.2021 41.7032C64.1658 41.5483 57.9563 40.0474 51.8502 40.151C51.9018 39.4785 51.9536 39.0644 52.0054 38.3917H52.1604C51.8499 36.684 51.7465 35.8042 51.4358 34.5106C49.4695 33.2688 47.3995 31.82 45.6404 29.0773C43.9327 26.3345 48.797 17.4344 48.797 17.4344V17.4344ZM68.7712 45.3776C68.7712 45.3776 71.9796 56.8654 68.2021 61.6779C68.2021 61.6779 68.7712 63.9028 67.4776 66.2833C67.2705 67.318 67.0116 68.2496 66.8567 69.2844C66.1839 73.5793 65.0453 75.3904 64.7348 82.2726L61.6298 82.2211C61.6298 82.2211 61.2676 77.2534 60.181 74.6143C59.5604 73.1139 57.1278 71.0955 57.2317 69.0776C57.3351 67.5251 57.6456 66.2314 60.2849 64.1615C60.4917 61.1604 57.4904 58.314 57.9563 47.1369L68.7712 45.3776Z" fill="#010101"/>
<path d="M67.8396 44.9116C68.6675 50.1897 70.582 58.0035 67.115 61.8325C67.3196 62.8034 67.3371 63.8045 67.1666 64.782C67.0632 65.4029 66.8562 66.0756 66.5975 66.7999C66.08 68.042 65.873 69.8531 65.7178 70.9396C65.0451 75.2346 65.0451 75.4419 64.7346 82.3241L61.6296 82.2722C61.6296 82.2722 61.2674 77.3046 60.1808 74.6658C59.5601 73.1651 58.2663 71.8715 58.1629 69.8533C58.0595 68.3011 59.146 65.1964 61.7335 65.2998C61.5783 59.0385 58.6804 60.2803 57.9043 47.2402L67.8396 44.9116ZM48.7969 17.4344C48.7969 17.4344 49.9353 17.7967 51.1771 17.9001C52.4191 18.0035 53.7645 17.9001 54.9545 17.8483C57.4383 17.6415 60.9572 17.3826 63.2858 18.728C63.2858 18.728 64.5794 18.3139 65.9766 18.4173C66.5975 18.4692 67.2187 18.9867 67.943 19.1937C70.2198 19.7628 72.3931 23.5402 71.4097 26.9557C71.3063 27.2145 70.5818 26.9557 69.7538 27.2145C69.9088 27.9391 70.0127 29.595 69.1845 31.3543C68.305 33.1138 67.1666 35.3906 67.3734 39.7374C61.9401 39.4785 59.5081 39.1165 54.1263 38.8576C53.6606 36.9428 53.3499 35.0283 53.2984 34.0452C54.0229 33.6829 54.4365 33.3727 55.0061 32.7515C53.4538 33.0104 52.8327 32.9068 51.9011 32.3893C50.9698 31.8718 49.3139 30.2159 48.4859 29.1293C48.3825 29.0257 47.8135 30.7331 46.5199 30.7852C46.0539 30.1125 48.0203 28.1977 47.658 27.4734C46.3646 24.8341 48.7969 17.4344 48.7969 17.4344V17.4344Z" fill="#F0EFEF"/>
<path d="M68.2532 40.6166C68.2532 40.6166 68.3566 42.4796 68.3566 42.9452C68.3566 43.4627 68.7707 45.0149 68.8223 45.7395C68.2532 46.7226 65.7694 48.9478 61.2674 49.7758C56.8172 50.7071 50.9182 43.7216 50.9182 43.7216C51.0734 43.0489 51.5909 41.0823 51.9532 40.0476C52.005 39.9442 52.1084 39.6853 52.1084 39.5819C52.5744 38.9092 68.2532 40.6166 68.2532 40.6166V40.6166Z" fill="#010101"/>
<path d="M67.1151 40.7721C67.1151 42.0658 67.3219 42.9974 67.4774 43.8253C67.736 45.326 68.1498 46.3092 68.1498 47.2923C68.1498 50.2934 64.2172 49.7759 60.9051 49.8796C56.4549 50.8112 52.6775 43.8253 52.6775 43.8253C52.9879 42.6351 53.195 41.2899 53.6607 40.1512C53.7122 39.5303 53.8159 38.7542 53.8675 38.3919C60.1806 38.3919 64.6307 38.7542 67.2182 39.0126C67.3219 39.5819 67.2185 40.5651 67.1151 40.7721Z" fill="#F0EFEF"/>
<path d="M62.1472 47.4473C62.1472 47.4473 59.4047 41.3412 51.1768 43.1526C49.2108 48.6893 46.5714 55.0542 48.2792 61.9364C46.5714 64.265 44.6051 65.5589 44.6051 69.8536C44.6051 74.1486 44.8122 74.8731 44.8122 74.8731L50.8664 75.1838C50.8664 75.1838 52.8327 72.6484 53.6089 69.9057C53.8159 69.1293 54.023 67.7323 53.8677 66.1282C54.0745 65.8178 54.9543 65.0935 55.0579 63.6962C55.0579 63.6962 58.0075 62.144 59.7152 58.3665C61.3195 54.9506 60.9054 52.0011 62.1472 47.4473Z" fill="#010101"/>
<path d="M62.1473 47.4472C61.9924 46.8782 59.9224 41.2896 52.2638 42.9453C47.762 54.9505 49.4179 59.9182 50.0904 62.0913C47.0372 65.9722 45.6402 66.8001 46.2613 74.6657H50.2977C52.1604 71.7162 52.5745 70.6294 52.6779 66.7485C52.6779 66.5933 52.1088 67.059 51.6947 67.5765C52.0054 65.9724 52.8849 65.662 53.5576 64.6788C53.8681 64.2647 54.1267 63.6438 54.1267 62.8159C57.749 60.3839 59.0944 57.3307 59.8705 54.1742C60.4917 52.001 61.216 48.4304 62.1473 47.4472V47.4472Z" fill="#F0EFEF"/>
<path d="M49.3661 39.1162C49.3661 39.1162 50.7633 39.1678 52.0054 39.5819C53.1956 39.9957 53.1956 40.2544 53.6613 40.7721C54.1269 41.2899 55.2653 42.0657 55.0585 42.8418C54.9549 43.2559 54.6963 43.3593 54.334 43.7216C54.1788 43.8768 53.0401 45.1186 52.7815 45.2739C52.6263 45.3772 52.4192 45.5327 52.264 45.6361L51.4879 46.1536C50.9704 46.4125 50.6081 46.5677 50.039 46.5159C50.039 46.5159 48.7454 46.4641 47.9172 45.5846C47.9172 45.5846 47.8138 45.1705 48.0209 44.9637C48.0209 44.9637 46.9341 44.0321 46.6236 43.4112C46.3129 42.7905 46.3129 41.9108 46.5202 41.4451C46.6236 40.9789 48.6415 39.6853 49.3661 39.1162V39.1162ZM50.6599 89.4653L50.5047 90.7592C50.5047 90.7592 50.039 91.3282 46.572 91.2767C43.0532 91.2248 42.1219 90.1383 41.8114 89.569L41.6046 88.2235C41.6046 88.2235 42.2773 87.2404 42.4326 87.2404C43.5709 87.3437 47.4521 88.8962 50.1429 89.3101C50.4011 89.3101 50.4526 89.4135 50.6599 89.4653ZM58.163 86.8263C58.163 87.3953 58.1112 87.3953 58.1112 87.9646C58.7321 88.4303 60.2848 88.6892 63.2341 88.6371C67.529 88.5337 71.5135 89.931 76.3776 89.1028L76.4294 88.1714L75.9637 88.1199L58.7321 86.7226L58.163 86.8263Z" fill="#010101"/>
<path d="M61.9404 88.6375H63.2341C66.0286 88.5341 68.6677 89.155 71.5135 89.3102C73.0142 89.2584 74.8771 88.8961 74.7219 87.8095L60.0259 86.5675C59.1462 87.5507 59.8186 88.3786 61.9404 88.6375V88.6375ZM45.0711 66.8523C45.5368 67.1627 48.6933 69.0257 53.8162 68.7668C53.7126 69.75 53.7644 71.6647 51.4876 75.0281C50.3492 76.684 49.3658 79.5819 49.159 83.256C49.2108 84.0839 49.6765 84.8082 49.0556 85.895C49.2624 86.5675 50.0903 87.9129 50.5044 88.7409C50.9183 89.5691 51.1253 90.5004 48.3826 90.5522C45.5883 90.6038 41.0863 90.2934 41.7075 88.1202C42.0182 86.9818 42.8977 85.7916 43.0014 85.3257C43.1048 84.86 43.1048 83.463 43.9843 82.5314C44.7606 79.9442 44.5018 77.4603 44.3468 75.1317C44.0879 72.6995 44.0361 68.8186 45.0711 66.8523V66.8523ZM49.8835 24.6789C53.5576 19.7628 50.4526 15.8304 44.5538 17.0203C42.1734 17.486 39.7932 19.1421 39.6377 22.1432C38.8616 22.2466 37.1023 22.35 36.2226 25.5584C35.5501 28.0422 35.1878 28.5079 33.9974 29.7497C33.2212 30.6295 34.0492 32.4406 34.6182 33.7345C36.533 38.1846 42.432 38.5985 46.4165 41.9621C47.762 41.5998 49.159 40.0994 49.5731 39.1162C46.2095 35.1315 46.9338 33.5792 45.5883 31.5095C47.0374 30.9917 50.3492 28.9738 49.8835 24.6789Z" fill="#010101"/>
<path d="M49.1591 24.3684C49.3659 24.0577 49.7281 23.3852 49.8836 23.1264C49.9354 23.0745 50.5045 24.0577 50.5563 24.0061C51.9534 21.7291 52.3156 18.4173 50.7113 18.1069C50.349 18.055 49.6766 17.9001 49.1072 17.6928C48.0725 17.3305 47.1411 17.3305 45.485 17.6412C43.2082 18.055 40.9314 19.7109 40.9314 22.0914C40.9314 22.2466 42.5352 22.7123 43.0012 24.627C42.2248 23.5402 40.8793 22.35 39.2753 23.385C37.5675 24.4715 38.4473 26.9554 36.1705 29.5426C35.3941 30.4224 35.4978 31.4574 36.3255 33.5271C37.6709 36.7873 44.0359 38.5466 47.5029 41.6513C48.3309 41.2891 48.8999 40.4611 49.314 39.8402C46.9854 37.4082 46.0538 35.1312 45.3813 33.4753C44.5534 31.5608 43.6218 30.4742 41.8107 29.0249C42.7423 29.3871 43.4668 29.7494 43.8804 30.0599C44.3461 30.3703 45.0188 30.4221 45.64 30.2151C47.8654 29.4395 49.0557 26.3345 49.1591 24.3684Z" fill="#F0EFEF"/>
<path d="M71.6688 25.1964C71.5135 27.1628 70.0647 26.1796 69.2886 25.8173C67.7361 25.1446 66.1836 24.6789 64.3725 24.6789C62.5614 24.6789 60.2328 24.8341 58.2148 25.3516C55.4206 26.1278 54.5924 26.0762 53.3506 25.455C52.1088 24.7823 49.9356 23.1264 49.9356 23.1264C49.9356 23.1264 49.8838 23.6439 50.4013 24.3166C51.0738 25.1446 52.5747 26.1796 54.5926 26.8521C55.5758 27.1628 56.3522 26.9555 57.2319 26.7487C61.8373 25.6102 66.7014 25.4032 70.7893 27.8871C70.9963 27.9905 71.7208 27.68 72.0313 27.2143C72.4449 26.5419 71.6688 25.1964 71.6688 25.1964V25.1964Z" fill="#010101"/>
<path d="M48.1243 44.9116C48.5381 45.1705 49.0557 45.3257 49.6248 45.7914C49.6248 45.7914 49.1591 45.7914 48.9523 45.5846C48.6934 45.4293 48.1758 44.9637 48.1243 44.9116V44.9116Z" fill="#0A1825"/>
<path d="M63.0789 3.87685C62.9237 3.41118 61.785 2.58298 59.1462 2.58298C56.3 2.58298 55.4721 3.46275 55.4205 3.92842C55.4205 4.08365 55.2134 5.73979 55.1616 6.41226C55.1616 6.41226 55.1616 7.2402 55.2132 8.482C55.265 9.30994 55.4721 9.77561 55.5755 10.8624C55.6789 12.0006 55.9896 12.7251 56.5586 13.6567C56.8175 13.8117 57.0243 13.9672 57.2832 14.019C58.3182 14.2258 60.1293 14.2776 61.1125 14.019C61.6816 13.8638 62.4061 12.8806 62.5614 12.0008C62.7682 10.9143 62.9752 10.1379 63.027 9.46542C63.1304 8.79295 63.1823 7.29203 63.2338 6.87793C63.3893 5.73979 63.1304 3.98025 63.0789 3.87685V3.87685Z" fill="#F0EFEF"/>
<path d="M57.6455 67.8354C57.6455 67.8354 60.3882 69.0257 67.167 67.9907C67.167 67.9907 65.2525 77.6156 66.1323 82.4278C66.1323 82.4278 67.0118 83.6698 73.532 86.05C73.532 86.05 76.4297 86.7745 76.3263 88.2236C76.3263 88.2236 76.4297 88.5341 72.9111 88.4304C69.3925 88.3268 66.0804 87.7059 63.7518 87.7059C61.4232 87.7059 58.9393 87.8093 58.5255 87.1368C58.0598 86.5159 58.6289 84.9116 59.3016 83.98C60.0264 82.9971 59.8191 82.2723 59.7675 80.5132C59.6118 75.9078 56.093 71.1472 57.6455 67.8354V67.8354Z" fill="#010101"/>
<path d="M57.0761 68.7152C56.7138 69.2327 57.1277 71.1988 57.6452 73.1136C58.1627 75.0281 59.3013 76.1668 59.5599 79.3231C59.8186 82.4278 59.8704 82.8419 58.9906 84.6528C58.1108 86.4637 57.8522 88.1198 60.9051 88.1717C63.958 88.2235 65.6142 88.1198 68.7189 88.5858C71.8238 89.0514 72.9104 89.2067 74.6181 88.948C76.3258 88.6894 76.6879 88.1198 75.9636 87.6026C75.239 87.0851 72.2377 86.516 70.9441 85.4808C69.702 84.5494 66.1835 82.9969 66.1319 82.5831C65.9767 81.1858 65.9249 76.1147 66.1835 74.4588C66.4424 72.8026 66.8044 70.4224 66.908 69.8015C67.0117 69.1806 67.5289 68.5595 66.6491 68.7665C65.7696 68.9733 62.4579 69.4393 59.974 69.284C57.4902 69.1291 57.2316 68.5597 57.0761 68.7152V68.7152Z" fill="#8AC640"/>
<path opacity="0.3" d="M58.8357 84.7049C59.7152 85.1187 61.009 85.4294 61.9922 85.4294C61.9922 85.4294 61.6297 87.1372 62.199 88.1719C62.7681 89.2069 58.0593 88.586 58.0593 88.586L57.8525 84.9119L58.8357 84.7049ZM72.5484 89.1551C73.3764 88.8962 73.9457 87.9649 73.273 87.0853C72.5484 86.2056 71.9275 86.0503 72.8589 85.9988C73.7905 85.9469 77.2056 88.0167 77.2056 88.0167L75.4461 89.6208L72.5484 89.1551ZM56.9209 70.7331C58.1111 71.1472 59.9222 71.2506 61.4747 71.1988C63.027 71.1472 65.3556 70.9399 66.8565 70.4227C68.3569 69.9052 67.736 70.9917 67.736 70.9917L66.908 71.7681C66.908 71.7681 64.9417 72.5442 61.7336 72.4927C57.9561 72.4409 56.8175 72.027 56.8175 72.027L56.9209 70.7331ZM57.0243 73.3206C58.2148 73.7347 60.0256 73.8381 61.5781 73.7863C63.1303 73.7347 65.2003 73.7347 66.701 73.1654C67.3219 72.9586 66.9599 73.8381 66.9599 73.8381L66.701 74.3038C66.701 74.3038 64.6828 75.0284 61.5263 74.9763C57.7488 74.9247 57.0761 74.614 57.0761 74.614L57.0243 73.3206Z" fill="#010101"/>
<path d="M53.6091 37.0465C53.6091 37.4088 57.6455 39.4267 59.8704 39.8408C62.0956 40.2546 66.7529 39.8408 67.4772 39.6855L67.3735 40.4101C67.3735 40.4101 61.8368 41.238 57.5936 40.0996C53.3503 38.9613 53.8162 38.7024 53.8162 38.7024L53.6091 37.0465Z" fill="#010101"/>
<path d="M44.9675 81.1859C45.5884 81.4966 47.8136 82.0657 49.2624 81.7552C49.4692 81.7034 49.2624 78.1846 49.8317 76.5805C50.6597 74.3553 52.0051 72.5442 52.6258 68.6118C50.4524 68.4048 47.9688 67.8354 46.6749 67.4213C45.0193 72.4927 45.5886 76.8392 44.9675 81.1859V81.1859ZM48.4347 84.4461C48.797 84.5495 49.0556 84.9634 49.1593 84.705C49.3661 84.2391 48.797 83.3596 48.7452 82.7387V82.6868C48.2795 82.273 45.1229 82.2212 45.33 82.428C44.9677 83.1007 44.3986 82.9973 44.1918 84.3427C44.0884 85.0152 44.9164 84.4461 45.6923 84.3943C44.2952 85.3256 42.6912 86.5161 42.4323 87.5509C42.1219 88.9997 42.6393 89.4138 44.1918 90.1902C45.5373 90.5006 47.1414 90.5524 48.3832 90.5006C49.7804 90.2417 50.0393 89.5693 49.6252 88.6377C49.0038 87.2404 48.59 85.4293 48.4347 84.4461V84.4461Z" fill="#F0EFEF"/>
<path d="M49.0038 17.2274C50.7115 18.2105 53.0919 17.9519 53.9715 17.9001C54.1785 17.9001 56.2485 17.5378 56.3519 17.5894C56.5587 17.6412 56.5587 17.7964 56.5587 17.7964C56.5587 17.7964 55.7826 18.2103 54.0233 18.3137C52.3674 18.4171 50.401 18.3137 49.3145 17.7964C48.0206 17.2274 49.0038 17.2274 49.0038 17.2274ZM66.5977 18.2105C66.9082 18.4173 68.9263 19.1937 69.8061 20.1251C70.5822 20.9533 70.1684 20.9014 70.0129 20.6944C69.8061 20.4355 68.2018 19.3489 67.5809 19.0903C66.96 18.8317 66.1836 18.3658 66.1836 18.2624C66.1836 18.159 66.5977 18.2105 66.5977 18.2105V18.2105Z" fill="#010101"/>
<path d="M48.7449 39.6853C50.2456 39.5819 51.7981 39.9442 52.7812 40.9789C53.2987 41.4964 54.1267 42.0655 54.0233 42.583C54.0233 42.7382 53.7126 43.1523 53.4542 43.4628C53.299 43.6696 52.8333 44.1352 52.6778 44.2907C52.471 44.4459 51.7465 45.0153 51.5913 45.1187C51.436 45.2223 51.229 45.4812 51.0738 45.5328C50.5565 45.7917 49.9872 45.5846 49.4697 45.326C48.9525 45.0671 49.5734 45.0153 49.004 44.6014C47.607 43.6183 46.8306 42.9453 47.4 41.0308C47.4515 40.6685 48.0206 40.2544 48.7449 39.6853V39.6853Z" fill="#F0EFEF"/>
<path opacity="0.4" d="M35.5497 27.8354C30.8925 29.6983 19.0424 35.5976 15.6791 37.4087C18.4734 39.168 19.767 43.4111 20.1811 47.7061C20.2326 48.1202 20.2845 48.4825 20.3363 48.8963C20.3879 49.2586 20.4397 49.5172 20.4913 49.6727C20.4913 49.7245 20.4913 49.8279 20.5431 49.8795C23.5962 41.5485 34.5145 32.7515 34.9286 32.0788C35.1353 31.7683 34.6697 30.4229 35.3942 29.1295C36.3258 27.4731 38.1372 26.7486 35.5497 27.8354V27.8354ZM46.6234 66.9041C49.0036 62.1435 49.0554 57.5896 49.0036 52.2597C49.0036 50.0345 50.6076 46.8779 49.7799 47.7577C46.675 51.2244 38.8615 57.7449 33.2211 58.1069C41.1382 57.8483 44.243 61.8328 46.6234 66.9041Z" fill="#010101"/>
<path d="M11.1254 41.8069C14.0749 39.6853 29.3401 31.5613 33.0142 30.4227C36.688 29.2325 35.5496 27.8352 35.5496 27.8352C35.5496 27.8352 20.6466 34.2517 11.7463 39.7887" fill="#010101"/>
<path opacity="0.4" d="M54.5923 26.8523C53.4021 26.3866 52.4707 27.7839 52.7812 29.1293C53.0919 30.4748 55.8862 31.9752 55.7307 36.8913C55.6273 40.9276 54.7475 42.5832 54.7475 42.5832L52.7812 40.0997C52.7812 40.0997 52.4707 34.5108 51.798 33.6829C51.1255 32.8549 49.0037 31.3543 48.1758 30.5782C47.3478 29.8018 49.1071 28.7671 49.0037 27.318C48.9003 25.9209 49.8835 23.1267 49.8835 23.1267L54.5923 26.8523ZM61.7852 48.8961C61.6818 52.7769 62.5616 58.521 62.9236 61.2637C63.2859 64.0061 63.7516 64.2132 62.9236 65.4552C62.0957 66.6455 61.0091 68.6118 61.0091 68.6118L57.4384 68.3011C57.4384 68.3011 60.2845 64.6789 60.4395 64.0061C60.5947 63.3337 58.9907 58.2108 58.9907 58.2108L61.7852 48.8961ZM54.903 12.6738C55.6275 14.2776 56.5071 15.0022 57.9041 15.4681C58.732 15.7786 61.992 16.1927 63.2859 14.7436C63.8549 14.0708 63.4927 12.2597 63.4927 12.2597L60.5432 14.6399L56.5586 13.9156L56.093 12.7254L54.903 12.6738Z" fill="#010101"/>
<path d="M55.2132 16.2442C56.5586 17.124 59.9222 17.9519 60.8536 18.1072C61.7849 18.3139 63.2856 17.124 64.0102 16.8135C64.7865 16.4513 66.132 16.2442 67.6842 17.6415C67.8395 17.7967 67.322 18.4694 67.322 18.4694C67.2701 18.4176 66.9597 18.4176 66.5456 18.2105C66.1317 18.0038 65.7695 17.8483 65.1486 17.9001C62.5611 18.2105 62.1472 19.0903 59.8704 18.5726C57.5936 18.0548 57.0243 17.6412 54.7993 17.7446" fill="#8AC640"/>
<path d="M55.2132 16.2442C56.5586 17.124 59.9222 17.9519 60.8536 18.1072C61.7849 18.3139 63.2856 17.124 64.0102 16.8135C64.7865 16.4513 66.132 16.2442 67.6842 17.6415C67.8395 17.7967 67.322 18.4694 67.322 18.4694C67.2701 18.4176 66.9597 18.4176 66.5456 18.2105C66.1317 18.0038 65.7695 17.8483 65.1486 17.9001C62.5611 18.2105 62.1472 19.0903 59.8704 18.5726C57.5936 18.0548 57.0243 17.6412 54.7993 17.7446" stroke="#010101" stroke-width="10.8638" stroke-miterlimit="10" stroke-linejoin="round"/>
<path d="M54.7475 16.3995C56.4553 17.124 59.767 17.9001 60.6984 18.1072C61.6297 18.3142 63.1304 17.3826 63.8549 16.917C65.1488 16.089 66.8044 16.7617 67.5808 17.6415C68.098 18.2106 68.3053 18.5728 68.3053 18.7281C68.3053 18.9348 67.6844 18.7281 67.6844 18.7281C67.3222 18.5728 66.9081 18.5213 66.5979 18.314C66.1838 18.1072 65.7697 17.7967 65.149 17.8483C62.5616 18.159 62.0441 19.0385 59.8191 18.521C57.5942 18.0035 57.0248 17.5378 54.6447 17.6928" fill="#8AC640"/>
<path d="M46.727 64.7304C46.6236 64.627 46.8304 64.5236 46.727 64.5236C46.0545 64.5236 45.1229 64.0061 44.6052 63.2816C42.3802 60.0734 39.12 57.9519 33.221 58.1071C24.3722 58.3139 20.8534 54.6919 20.1809 47.7579C19.8186 43.9805 18.7836 40.3064 16.6621 38.2365L15.42 39.0128C17.8002 41.0826 18.5766 44.4462 19.0941 49.0515C19.922 55.9855 25.5106 59.1939 32.0308 59.2973C38.8095 59.4007 41.2416 60.798 43.777 64.2134C44.6049 65.3 45.5365 65.6622 46.2608 65.8175L46.727 64.7304Z" fill="#010101"/>
<path opacity="0.4" d="M70.7373 31.4577C70.8926 32.2338 71.3064 33.7345 72.1343 34.4588C72.4968 34.821 72.5484 34.9244 72.238 34.9244C71.9273 34.9244 69.6505 34.821 69.6505 34.821L69.0297 33.7345L70.7373 31.4577Z" fill="#010101"/>
</svg>
