<svg width="80" height="80" viewBox="0 0 80 80" fill="none" xmlns="http://www.w3.org/2000/svg">
<path d="M5.97484 0C5.23958 0 4.69174 0.599168 4.75698 1.33148L10.9556 70.8593C11.0208 71.5916 11.6537 72.3517 12.3625 72.5485L38.6662 79.8519C39.3748 80.0487 40.5341 80.0487 41.2429 79.8524L67.6266 72.537C68.3351 72.3405 68.9687 71.5804 69.034 70.8483L75.2428 1.33148C75.3085 0.599168 74.7602 0 74.0249 0H5.97484ZM62.0421 15.946C61.9835 16.5992 61.8822 17.7331 61.817 18.4654L61.6536 20.2896C61.5878 21.0217 61.4942 22.0687 61.4448 22.616C61.3956 23.1635 61.3488 23.6114 61.3402 23.6114C61.332 23.6114 60.7234 23.6114 59.9882 23.6114H41.3367C40.6014 23.6114 39.9937 23.6114 39.9857 23.6114C39.9777 23.6114 39.3694 23.6114 38.6342 23.6114H28.8111C28.0759 23.6114 27.528 24.2105 27.5933 24.9429L28.1662 31.3476C28.2315 32.0797 28.8868 32.6791 29.622 32.6791H38.6344C39.3697 32.6791 39.9779 32.6791 39.986 32.6791C39.994 32.6791 40.6017 32.6791 41.337 32.6791H56.8279C57.5632 32.6791 58.7011 32.6791 59.3564 32.6791C60.0112 32.6791 60.4988 33.2136 60.4395 33.8667C60.3799 34.5199 60.278 35.6541 60.2128 36.3861L58.3703 57.0343C58.3046 57.7666 58.2214 58.7021 58.1856 59.1133C58.149 59.5243 57.5396 60.0213 56.8311 60.2178L41.2883 64.5275C40.5798 64.7238 39.991 64.8863 39.9801 64.8887C39.9691 64.8911 39.3806 64.732 38.6719 64.5355L23.1125 60.2181C22.404 60.0216 21.7708 59.2615 21.7056 58.5291L20.704 47.2877C20.6388 46.5554 21.1872 45.9562 21.9224 45.9562H23.3424C24.0777 45.9562 25.2808 45.9562 26.0161 45.9562H28.1336C28.8689 45.9562 29.5237 46.5554 29.5894 47.2877L29.9822 51.6883C30.0474 52.4206 30.6814 53.1765 31.3915 53.3682L38.6695 55.3336C39.379 55.5253 39.9624 55.6822 39.9656 55.6822C39.9689 55.6822 40.552 55.525 41.2618 55.3333L48.5529 53.3631C49.2625 53.1714 49.897 52.4153 49.9627 51.6832L50.7533 42.8666C50.8191 42.1342 50.2713 41.5351 49.536 41.5351H41.337C40.6017 41.5351 39.994 41.5351 39.986 41.5351C39.9779 41.5351 39.3697 41.5351 38.6344 41.5351H21.5259C20.7907 41.5351 20.1359 40.9356 20.0707 40.2036L18.1306 18.4651C18.0654 17.7328 17.9641 16.5992 17.9055 15.9457C17.8475 15.2925 18.4012 14.7581 19.1365 14.7581H38.6344C39.3697 14.7581 39.9779 14.7581 39.986 14.7581C39.994 14.7581 40.6017 14.7581 41.337 14.7581H60.8114C61.5464 14.7581 62.1004 15.2925 62.0421 15.946Z" fill="#969293"/>
</svg>
