<svg width="80" height="80" viewBox="0 0 80 80" fill="none" xmlns="http://www.w3.org/2000/svg">
<path d="M0 0H80V80H0V0ZM73.45 60.925C72.865 57.265 70.48 54.205 63.4375 51.3425C60.99 50.1975 58.255 49.39 57.4475 47.54C57.1475 46.445 57.095 45.8475 57.29 45.195C57.7975 43.0325 60.3375 42.395 62.3425 42.995C63.645 43.3975 64.8425 44.3875 65.5975 45.99C69.0475 43.7375 69.0475 43.7375 71.445 42.24C70.5475 40.8475 70.105 40.235 69.4925 39.65C67.395 37.2925 64.5975 36.095 60.0525 36.2L57.695 36.5C55.4425 37.0475 53.295 38.245 51.9925 39.8475C48.2025 44.145 49.2975 51.645 53.8925 54.7575C58.4375 58.155 65.09 58.8975 65.95 62.1025C66.745 66.01 63.0475 67.26 59.3875 66.8025C56.6925 66.2025 55.195 64.85 53.54 62.35L47.445 65.8525C48.135 67.455 48.9425 68.145 50.14 69.55C55.935 75.3975 70.44 75.0975 73.0425 66.2025C73.1325 65.9025 73.8375 63.845 73.29 60.7075L73.45 60.925ZM43.5025 36.77H36.015C36.015 43.2275 35.975 49.6475 35.975 56.12C35.975 60.2225 36.1825 63.9975 35.52 65.1575C34.4125 67.45 31.5875 67.1625 30.2975 66.76C28.9825 66.11 28.305 65.21 27.5375 63.9075C27.315 63.555 27.16 63.2575 27.1075 63.2575L21.0275 67.0075C22.0425 69.105 23.5275 70.915 25.4425 72.06C28.295 73.765 32.1225 74.3125 36.1325 73.415C38.7375 72.66 40.99 71.11 42.16 68.715C43.865 65.615 43.5 61.815 43.4875 57.555C43.5275 50.705 43.4875 43.8575 43.4875 36.955L43.5025 36.77Z" fill="#969293"/>
</svg>
