<svg width="30" height="30" viewBox="0 0 30 30" fill="none" xmlns="http://www.w3.org/2000/svg">
<path d="M0 4.69695C0 3.35877 1.08606 2.27271 2.42424 2.27271H27.5758C28.9139 2.27271 30 3.35877 30 4.69695C30 6.03513 28.9139 7.12119 27.5758 7.12119H2.42424C1.08606 7.12119 0 6.03513 0 4.69695ZM27.5758 12.5757H2.42424C1.08606 12.5757 0 13.6618 0 15C0 16.3382 1.08606 17.4242 2.42424 17.4242H27.5758C28.9139 17.4242 30 16.3382 30 15C30 13.6618 28.9152 12.5757 27.5758 12.5757ZM27.5758 22.8788H2.42424C1.08606 22.8788 0 23.9648 0 25.303C0 26.6412 1.08606 27.7273 2.42424 27.7273H27.5758C28.9139 27.7273 30 26.6412 30 25.303C30 23.9648 28.9152 22.8788 27.5758 22.8788Z" fill="#05FDD8"/>
</svg>
