<svg width="80" height="80" viewBox="0 0 80 80" fill="none" xmlns="http://www.w3.org/2000/svg">
<path fill-rule="evenodd" clip-rule="evenodd" d="M28.3486 9.7951C26.2182 9.17702 24.6379 9.34278 23.4883 9.96544C22.3387 10.5882 21.3366 11.8212 20.6905 13.9434C20.0396 16.0809 19.8175 18.9346 20.1338 22.3803C20.185 22.9386 20.2501 23.509 20.329 24.0905C23.1193 23.3814 26.1179 22.8213 29.2687 22.4304C31.4529 19.3701 33.744 16.6104 36.0683 14.2173C35.9518 14.1229 35.8356 14.0298 35.7194 13.9379C33.0061 11.7906 30.4946 10.4177 28.3486 9.7951ZM39.9997 10.5467C39.6759 10.2753 39.3524 10.0115 39.0291 9.75574C35.9787 7.3416 32.8547 5.54918 29.8347 4.67301C26.7993 3.79234 23.6835 3.79422 20.9481 5.27592C18.2127 6.7576 16.509 9.36641 15.5884 12.39C14.6725 15.3981 14.4671 18.9939 14.8228 22.8678C14.9061 23.7758 15.021 24.7064 15.1669 25.6568C14.2618 25.9811 13.3889 26.3234 12.5509 26.6825C8.97525 28.2149 5.91131 30.1081 3.70251 32.3462C1.48241 34.5957 0 37.3364 0 40.4473C0 43.5582 1.4824 46.2988 3.70251 48.5484C5.91131 50.7865 8.97525 52.6796 12.5509 54.2123C13.3889 54.5712 14.2618 54.9136 15.1668 55.2379C15.0209 56.1883 14.906 57.1189 14.8227 58.0272C14.467 61.9008 14.6724 65.4965 15.5883 68.5051C16.5089 71.5285 18.2126 74.1371 20.9479 75.6187C23.6834 77.1008 26.7992 77.1024 29.8346 76.2219C32.8546 75.3456 35.9786 73.5531 39.029 71.1392C39.3523 70.8832 39.6759 70.6197 39.9997 70.3483C40.3235 70.6197 40.647 70.8832 40.9703 71.1392C44.0208 73.5531 47.1448 75.3456 50.1648 76.2219C53.2002 77.1024 56.3157 77.1008 59.0512 75.6187C61.7867 74.1371 63.4907 71.5285 64.4112 68.5051C65.3269 65.4965 65.5323 61.9008 65.1765 58.0272C65.0933 57.1189 64.9787 56.1883 64.8325 55.2379C65.7376 54.9136 66.6107 54.5712 67.4491 54.2123C71.0245 52.6796 74.0885 50.7865 76.2976 48.5484C78.5173 46.2988 80 43.5582 80 40.4473C80 37.3364 78.5173 34.5957 76.2976 32.3462C74.0885 30.1081 71.0245 28.2149 67.4491 26.6825C66.6107 26.3233 65.7376 25.981 64.8325 25.6566C64.9781 24.7062 65.0933 23.7757 65.1765 22.8678C65.5323 18.9939 65.3269 15.3981 64.4112 12.39C63.4907 9.36641 61.7867 6.7576 59.0512 5.27592C56.3157 3.79422 53.2001 3.79234 50.1646 4.67301C47.1447 5.54918 44.0207 7.3416 40.9702 9.75574C40.647 10.0115 40.3234 10.2753 39.9997 10.5467ZM39.9997 17.8249C38.8007 19.0524 37.6009 20.3979 36.4145 21.8513C37.5966 21.8045 38.7926 21.7806 40 21.7806C41.2072 21.7806 42.403 21.8045 43.5849 21.8513C42.3985 20.3979 41.1986 19.0524 39.9997 17.8249ZM50.7306 22.4302C48.5464 19.37 46.2553 16.6104 43.931 14.2173C44.0475 14.1229 44.1638 14.0298 44.2799 13.9379C46.9932 11.7906 49.5048 10.4177 51.6507 9.7951C53.7813 9.17702 55.3616 9.34278 56.5109 9.96544C57.6608 10.5882 58.6629 11.8212 59.3088 13.9434C59.9595 16.0809 60.1819 18.9346 59.8656 22.3803C59.8144 22.9386 59.7493 23.5089 59.6704 24.0904C56.88 23.3813 53.8816 22.8212 50.7306 22.4302ZM47.7299 27.4685C45.248 27.237 42.6619 27.114 40 27.114C37.3379 27.114 34.7515 27.237 32.2694 27.4685C30.8837 29.5406 29.5437 31.7562 28.2758 34.0969C27.1212 36.2284 26.0862 38.3532 25.1715 40.4473C26.0862 42.5414 27.1213 44.6663 28.2759 46.798C29.5437 49.1386 30.8837 51.354 32.2694 53.4261C34.7515 53.6576 37.3379 53.7808 40 53.7808C42.6619 53.7808 45.2481 53.6576 47.7299 53.4261C49.1156 51.3541 50.4556 49.1386 51.7235 46.798C52.8781 44.6663 53.9131 42.5414 54.8277 40.4473C53.9131 38.3533 52.8781 36.2284 51.7236 34.0969C50.4556 31.7561 49.1156 29.5406 47.7299 27.4685ZM57.4549 33.538C57.1179 32.8774 56.7707 32.2168 56.4133 31.5566C55.8379 30.495 55.2475 29.4547 54.6432 28.4377C56.0331 28.7022 57.3723 29.0028 58.6549 29.336C58.3179 30.7007 57.9179 32.1044 57.4549 33.538ZM57.4549 47.3566C57.1179 48.0172 56.7707 48.678 56.4128 49.3382C55.8379 50.3997 55.2475 51.4399 54.6432 52.457C56.0331 52.1923 57.3723 51.8917 58.6549 51.5585C58.3179 50.1939 57.9179 48.7902 57.4549 47.3566ZM63.7509 49.953C62.9776 46.8933 61.9275 43.6989 60.6128 40.4473C61.9275 37.1957 62.9776 34.0012 63.7509 30.9415C64.3003 31.1492 64.8325 31.3637 65.3483 31.5846C68.5285 32.9476 70.9317 34.5022 72.5013 36.0925C74.0597 37.6714 74.6667 39.1399 74.6667 40.4473C74.6667 41.7547 74.0597 43.2232 72.5013 44.802C70.9317 46.3924 68.5285 47.9469 65.3483 49.3099C64.8325 49.5308 64.3003 49.7453 63.7509 49.953ZM59.6704 56.8043C56.88 57.5131 53.8816 58.0736 50.7307 58.4645C48.5465 61.5248 46.2554 64.2843 43.931 66.6773C44.0475 66.7717 44.1638 66.8651 44.2801 66.9568C46.9933 69.104 49.5049 70.4773 51.6508 71.0997C53.7813 71.7179 55.3616 71.552 56.5109 70.9296C57.6608 70.3067 58.6629 69.0736 59.3088 66.9515C59.96 64.8139 60.1819 61.96 59.8656 58.5147C59.8144 57.9563 59.7493 57.3856 59.6704 56.8043ZM39.9997 63.0699C41.1987 61.8421 42.3986 60.4965 43.585 59.0432C42.403 59.0901 41.2072 59.1141 40 59.1141C38.7926 59.1141 37.5965 59.0901 36.4143 59.0432C37.6008 60.4965 38.8007 61.8421 39.9997 63.0699ZM25.3561 52.4568C24.7519 51.4398 24.1613 50.3997 23.5863 49.3382C23.2287 48.678 22.8813 48.0172 22.5442 47.3566C22.0817 48.7901 21.6817 50.1938 21.3444 51.5583C22.6268 51.8916 23.9663 52.1922 25.3561 52.4568ZM20.3289 56.8043C23.1192 57.5131 26.1179 58.0731 29.2686 58.464C31.4528 61.5243 33.744 64.2843 36.0684 66.6773C35.9518 66.7717 35.8355 66.8651 35.7193 66.9568C33.006 69.104 30.4945 70.4773 28.3485 71.0997C26.2181 71.7179 24.6378 71.552 23.4882 70.9296C22.3386 70.3067 21.3365 69.0736 20.6903 66.9515C20.0395 64.8139 19.8174 61.96 20.1337 58.5147C20.185 57.9563 20.25 57.3856 20.3289 56.8043ZM16.2483 49.9528C17.0217 46.8932 18.0717 43.6988 19.3863 40.4473C18.0717 37.1958 17.0217 34.0014 16.2483 30.9418C15.6995 31.1494 15.1671 31.3638 14.6518 31.5846C11.4714 32.9476 9.06805 34.5022 7.49851 36.0925C5.94027 37.6714 5.33333 39.1399 5.33333 40.4473C5.33333 41.7547 5.94027 43.2232 7.49851 44.802C9.06805 46.3924 11.4714 47.9469 14.6518 49.3099C15.1671 49.5308 15.6995 49.7452 16.2483 49.9528ZM21.3444 29.3362C21.6817 30.7008 22.0817 32.1044 22.5442 33.538C22.8813 32.8774 23.2287 32.2168 23.5862 31.5566C24.1613 30.495 24.7519 29.4548 25.3561 28.4378C23.9663 28.7024 22.6269 29.003 21.3444 29.3362ZM32 40.4473C32 36.029 35.5817 32.4473 40 32.4473C44.4183 32.4473 48 36.029 48 40.4473C48 44.8655 44.4183 48.4473 40 48.4473C35.5817 48.4473 32 44.8655 32 40.4473ZM40 37.7806C38.5273 37.7806 37.3333 38.9745 37.3333 40.4473C37.3333 41.9201 38.5273 43.114 40 43.114C41.4727 43.114 42.6667 41.9201 42.6667 40.4473C42.6667 38.9745 41.4727 37.7806 40 37.7806Z" fill="#969293"/>
</svg>
