<svg width="80" height="80" viewBox="0 0 80 80" fill="none" xmlns="http://www.w3.org/2000/svg">
<path d="M25.2621 53.7582H36.4187V56.3319H25.2621V58.4535H60.3506V56.3319H47.3427V53.7582H61.8102V47.8817H25.2621V53.7582Z" fill="#969293"/>
<path d="M15.5456 18.3994H68.7369V39.6609H73.2946V13.8417H10.9879V28.0799H15.5456V18.3994Z" fill="#969293"/>
<path d="M0 65.2015H23.7926V29.5102H0V65.2015ZM12.3984 63.4092C11.7661 63.4092 11.2516 62.8981 11.2516 62.2641C11.2516 61.6317 11.7661 61.1189 12.3984 61.1189C13.0324 61.1189 13.5436 61.6301 13.5436 62.2641C13.5436 62.8981 13.0324 63.4092 12.3984 63.4092ZM3.44037 32.9505H20.3555L20.3539 59.2808H3.44037V32.9505Z" fill="#969293"/>
<path d="M63.4257 41.0321V66.1583H80V41.0321H63.4257ZM72.0495 42.0708C72.2477 42.0708 72.4099 42.2362 72.4099 42.4328C72.4099 42.6311 72.2477 42.7965 72.0495 42.7965C71.848 42.7965 71.6842 42.6311 71.6842 42.4328C71.6842 42.2346 71.8464 42.0708 72.0495 42.0708ZM69.8968 43.2765H74.194V43.6238H69.8968V43.2765ZM71.9053 65.0737C71.4286 65.0737 71.0469 64.6871 71.0469 64.2136C71.0469 63.7385 71.4286 63.3552 71.9053 63.3552C72.3788 63.3552 72.7654 63.7385 72.7654 64.2136C72.7654 64.6854 72.3788 65.0737 71.9053 65.0737ZM77.6032 62.115C73.7238 62.1363 67.7474 62.151 65.8257 62.1347V44.8591L77.6032 44.8575V62.115Z" fill="#969293"/>
</svg>
