<svg width="80" height="80" viewBox="0 0 80 80" fill="none" xmlns="http://www.w3.org/2000/svg">
<path d="M37.8613 12.5342C34.3281 12.3477 30.3557 12.8892 26.4697 14.2383C20.2947 16.3808 13.616 19.7506 8.81349 24.1406C3.10849 29.3656 2.19337 33.9129 2.56837 35.8154C3.90337 42.5629 13.4191 46.9647 17.2266 50.2197C17.0391 50.3222 16.8642 50.4104 16.6992 50.5029C14.7892 51.4304 7.70369 55.0741 5.88869 58.9941C3.83869 63.4391 6.22787 66.6207 7.79787 67.0557C12.6954 68.3857 17.5419 66.0613 20.2344 62.1338C22.9294 58.2038 22.6048 53.0748 21.3623 50.7373C21.3498 50.7023 21.326 50.6795 21.3135 50.6445C21.806 50.357 22.3075 50.0678 22.8125 49.7803C23.785 49.2178 24.7339 48.7043 25.5664 48.2568C25.0964 49.4943 24.7576 50.9872 24.5801 53.1397C24.3701 55.6597 25.4339 58.9201 26.8164 60.2051C27.4264 60.7676 28.1632 60.7813 28.6182 60.7813C30.2357 60.7813 30.9626 59.475 31.7676 57.915C32.7626 56.0125 33.6426 53.8037 33.6426 53.8037C33.6426 53.8037 32.5442 59.7803 35.5567 59.7803C36.6567 59.7803 37.7595 58.3956 38.252 57.6856V57.6953C38.252 57.6953 38.2701 57.6511 38.3301 57.5586C38.4476 57.3861 38.5059 57.2852 38.5059 57.2852V57.251C38.9509 56.506 39.9266 54.7999 41.3916 51.9824C43.2891 48.3399 45.1026 43.7891 45.1026 43.7891C45.2776 44.7891 45.5201 45.7757 45.8301 46.7432C46.1576 47.8307 46.8524 49.0232 47.4024 50.1807C46.9574 50.7757 46.6846 51.1182 46.6846 51.1182C46.6846 51.1282 46.6917 51.1376 46.6992 51.1426C46.3467 51.6001 45.9471 52.0907 45.5371 52.5732C44.0371 54.3157 42.254 56.3123 42.0215 56.8848C41.739 57.5598 41.8111 58.0622 42.3486 58.4522C42.7461 58.7497 43.4545 58.7952 44.1895 58.7402C45.537 58.6477 46.4859 58.3251 46.9434 58.1201C47.7859 57.8251 48.5817 57.4192 49.3067 56.9092C50.7717 55.8542 51.6645 54.3411 51.582 52.3486C51.5345 51.2486 51.1677 50.1462 50.7227 49.1162C50.8527 48.9337 50.9956 48.7399 51.1231 48.5449C53.4431 45.2349 55.2344 41.6016 55.2344 41.6016C55.4094 42.6016 55.6519 43.5882 55.9619 44.5557C56.2444 45.4832 56.7948 46.5025 57.2998 47.5C55.1223 49.23 53.7708 51.2362 53.3008 52.5537C52.4333 54.9937 53.117 56.0903 54.3945 56.3428C54.9695 56.4578 55.7865 56.1973 56.3965 55.9473C57.3015 55.6523 58.1533 55.2229 58.9258 54.6729C60.3908 53.6179 61.8089 52.1417 61.7139 50.1367C61.6789 49.2317 61.424 48.3261 61.084 47.4561C62.924 46.7011 65.3119 46.2884 68.3594 46.6309C74.8844 47.3759 76.163 51.3625 75.918 53.0225C75.673 54.685 74.3003 55.6137 73.8428 55.8887C73.3853 56.1637 73.2463 56.2671 73.2813 56.4746C73.3388 56.7721 73.5481 56.7595 73.9356 56.6895C74.4756 56.597 77.3554 55.3384 77.4854 52.2559C77.6728 48.3628 73.8465 44.0807 67.0654 44.1113H67.0557C64.7015 44.1128 62.3806 44.6406 60.2686 45.6592C59.5761 44.2967 58.8601 43.1044 58.7451 42.2119C58.6051 41.1694 58.4557 40.5514 58.6182 39.3164C58.7832 38.0789 59.5194 36.3238 59.5069 36.1963C59.4944 36.0713 59.342 35.4422 57.832 35.4297C56.322 35.4172 55.0182 35.716 54.8682 36.1035C54.6007 36.816 54.3931 37.546 54.2481 38.291C53.9781 39.631 51.2255 44.4214 49.668 46.9189C49.153 45.9439 48.7204 45.0869 48.6279 44.3994C48.4879 43.3569 48.3336 42.7389 48.4961 41.5039C48.6611 40.2664 49.4022 38.5113 49.3897 38.3838C49.3772 38.2588 49.2249 37.6297 47.7149 37.6172C46.2049 37.6047 44.8986 37.9035 44.7461 38.291C44.5936 38.681 44.4285 39.596 44.126 40.4785C43.821 41.361 40.1544 49.3386 39.1944 51.4111C38.7019 52.4661 38.2786 53.3142 37.9736 53.8867C37.9261 53.9792 37.8936 54.037 37.8711 54.082C37.9061 54.0245 37.9297 53.9668 37.9297 53.9893C37.6722 54.4818 37.5195 54.7559 37.5195 54.7559V54.7656C37.3195 55.1331 37.0972 55.4688 36.9922 55.4688C36.9222 55.4688 36.7689 54.506 37.0264 53.1885C37.5764 50.416 38.8797 46.107 38.8672 45.957C38.8547 45.877 39.1078 45.1314 38.0078 44.7314C36.9403 44.3539 36.5599 44.9854 36.4649 44.9854C36.3699 44.9854 36.2988 45.2148 36.2988 45.2148C36.2988 45.2148 37.4785 40.3564 34.0235 40.3564C31.866 40.3564 28.8651 42.6706 27.3926 44.7656C26.4676 45.2581 24.4635 46.3259 22.3535 47.4609C21.546 47.8959 20.7167 48.3422 19.9317 48.7647C19.8742 48.7072 19.8256 48.6513 19.7656 48.5938C15.5706 44.2163 7.82681 41.1216 8.15431 35.2441C8.27181 33.1016 9.03689 27.4794 23.0469 20.6494C34.5319 15.0594 43.713 16.5924 45.293 20.0049C47.5655 24.8749 40.382 33.9391 28.457 35.2441C23.912 35.7366 21.8182 33.8163 21.2207 33.1738C20.6007 32.4988 20.5036 32.4629 20.2686 32.5879C19.8811 32.7929 20.1286 33.3901 20.2686 33.7451C20.6211 34.6501 22.1876 36.0676 24.6826 36.8701C26.8751 37.5701 31.9095 38.1578 38.3545 35.7178C45.5945 32.9903 51.1252 25.5811 49.4727 19.2236C48.4211 15.1846 43.7501 12.845 37.8613 12.5342ZM34.0186 43.2227C34.2018 43.2362 34.3378 43.3039 34.4141 43.4326C34.8241 44.1101 32.9895 49.0972 32.5195 50.2197C31.7695 52.0197 30.1861 56.6048 29.2236 56.3623C28.4036 56.1573 27.8976 52.6611 29.0576 49.2236C29.6426 47.4936 30.886 45.4314 31.626 44.6289C32.5129 43.6577 33.4688 43.1821 34.0186 43.2227ZM58.3692 48.877C58.5067 49.277 58.5789 49.6972 58.5889 50.1172C58.5764 52.6972 56.6917 53.6576 55.5567 54.0576C55.3217 53.8976 55.3527 53.3571 56.1377 51.6846C56.4427 51.0321 57.1492 49.932 58.3692 48.877ZM19.0088 51.7188C19.9813 55.2013 19.045 58.2734 16.7725 60.6934C14.6175 62.9959 11.593 63.8673 10.293 63.1348C8.89798 62.3423 9.44939 58.9491 12.1094 56.4941C13.7269 55.0041 15.8148 53.6307 17.1973 52.7832C17.5148 52.6007 17.9678 52.3247 18.5303 51.9922C18.6253 51.9347 18.6719 51.9141 18.6719 51.9141C18.7769 51.8466 18.8913 51.7888 19.0088 51.7188ZM48.4522 52.1191C48.4522 52.1766 48.4668 52.2372 48.4668 52.3047C48.4518 54.3547 46.4326 55.7391 45.5176 56.2891H45.5274V56.294C45.2099 56.454 44.9154 56.5546 44.7754 56.4746C44.6704 56.4171 44.9072 56.2012 44.9072 56.2012C44.9072 56.2012 46.5352 54.4909 47.1777 53.7109C47.5527 53.2534 47.9847 52.7141 48.4522 52.1191Z" fill="#969293"/>
</svg>
