<svg width="80" height="80" viewBox="0 0 80 80" fill="none" xmlns="http://www.w3.org/2000/svg">
<g clip-path="url(#clip0_103_574)">
<path d="M0.761137 27.8972C0.761137 27.8972 -1.18737 26.4775 1.15084 24.5818L6.59853 19.6579C6.59853 19.6579 8.15737 18.0001 9.80547 19.4445L60.077 57.9167V76.3647C60.077 76.3647 60.0527 79.2617 56.3747 78.9417L0.761137 27.8972Z" fill="#969293"/>
<path d="M13.7185 39.789L0.760899 51.6963C0.760899 51.6963 -0.570585 52.6977 0.760899 54.4867L6.77692 60.0177C6.77692 60.0177 8.20582 61.5687 10.3167 59.8043L24.0537 49.2757L13.7185 39.789Z" fill="#969293"/>
<path d="M36.4667 39.887L60.2303 21.5454L60.076 3.1955C60.076 3.1955 59.061 -0.809311 55.6757 1.27516L24.053 30.3675L36.4667 39.887Z" fill="#969293"/>
<path d="M56.3737 78.9667C57.7537 80.3943 59.4263 79.9267 59.4263 79.9267L77.946 70.7027C80.317 69.0693 79.984 67.0423 79.984 67.0423V11.9601C79.984 9.53917 77.532 8.7021 77.532 8.7021L61.4803 0.881256C57.973 -1.30989 55.6757 1.27516 55.6757 1.27516C55.6757 1.27516 58.6307 -0.874947 60.076 3.1955V76.0287C60.076 76.5293 59.9703 77.0217 59.7593 77.4647C59.337 78.3263 58.4197 79.1307 56.2193 78.7943L56.3737 78.9667Z" fill="#969293"/>
</g>
<defs>
<clipPath id="clip0_103_574">
<rect width="80" height="80" fill="white"/>
</clipPath>
</defs>
</svg>
